<?xml version="1.0" standalone="no"?><!DOCTYPE svg PUBLIC "-//W3C//DTD SVG 1.1//EN" "http://www.w3.org/Graphics/SVG/1.1/DTD/svg11.dtd"><svg t="1608101229464" class="icon" viewBox="0 0 1024 1024" version="1.1" xmlns="http://www.w3.org/2000/svg" p-id="3316" id="mx_n_1608101229464" xmlns:xlink="http://www.w3.org/1999/xlink" width="200" height="200"><defs><style type="text/css"></style></defs><path d="M814.1 615.5H463.3c-47.7 0-88.9-34-97.8-80.9l-50-262.4c-4.1-21.3-22.8-36.8-44.5-36.8H90.8c-15 0-27.2-12.2-27.2-27.2S75.8 181 90.8 181h180.3c47.7 0 88.9 34 97.8 80.9l50 262.4c4.1 21.3 22.8 36.8 44.5 36.8h350.8c21.7 0 40.4-15.5 44.5-36.8l47.9-251.6c2.8-14.7 17-24.4 31.8-21.6 14.7 2.8 24.4 17 21.6 31.8l-47.9 251.6c-9.1 46.9-50.2 81-98 81z" fill="#921010" p-id="3317" data-spm-anchor-id="a313x.7781069.0.i23" class=""></path><path d="M439.1 400.3l30.7 165.8c6 34.2 33.5 58.9 65.5 58.9h323.2c32 0 59.5-24.7 65.5-58.9l29.4-167.2c7.7-44.1-23-85.1-64.3-85.9l-383.3 1.5c-42.3-1-74.7 40.6-66.7 85.8z" fill="#921010" opacity=".1" p-id="3318" data-spm-anchor-id="a313x.7781069.0.i22" class=""></path><path d="M491.2 843c-51.6 0-93.5-42-93.5-93.5 0-51.6 42-93.5 93.5-93.5 51.6 0 93.5 42 93.5 93.5 0.1 51.5-41.9 93.5-93.5 93.5z m0-132.8c-21.6 0-39.2 17.6-39.2 39.2s17.6 39.2 39.2 39.2 39.2-17.6 39.2-39.2-17.5-39.2-39.2-39.2zM804.3 843c-51.6 0-93.5-42-93.5-93.5 0-51.6 42-93.5 93.5-93.5 51.6 0 93.5 42 93.5 93.5 0.1 51.5-41.9 93.5-93.5 93.5z m0-132.8c-21.6 0-39.2 17.6-39.2 39.2s17.6 39.2 39.2 39.2 39.2-17.6 39.2-39.2c0.1-21.6-17.5-39.2-39.2-39.2z" fill="#921010" p-id="3319"></path></svg>