<?xml version="1.0" standalone="no"?><!DOCTYPE svg PUBLIC "-//W3C//DTD SVG 1.1//EN" "http://www.w3.org/Graphics/SVG/1.1/DTD/svg11.dtd"><svg t="1608101293708" class="icon" viewBox="0 0 1024 1024" version="1.1" xmlns="http://www.w3.org/2000/svg" p-id="3799" xmlns:xlink="http://www.w3.org/1999/xlink" width="200" height="200"><defs><style type="text/css"></style></defs><path d="M432.2 602.1m-302.2 0a302.2 302.2 0 1 0 604.4 0 302.2 302.2 0 1 0-604.4 0Z" fill="#921010" opacity=".1" p-id="3800"></path><path d="M143.4 199.4m-79.8 0a79.8 79.8 0 1 0 159.6 0 79.8 79.8 0 1 0-159.6 0Z" fill="#921010" p-id="3801"></path><path d="M920.5 239.3H362.2c-22 0-39.9-17.8-39.9-39.9s17.8-39.9 39.9-39.9h558.3c22 0 39.9 17.8 39.9 39.9s-17.9 39.9-39.9 39.9z" fill="#921010" p-id="3802"></path><path d="M143.4 509.1m-79.8 0a79.8 79.8 0 1 0 159.6 0 79.8 79.8 0 1 0-159.6 0Z" fill="#921010" p-id="3803"></path><path d="M814.1 547.8H362.2c-22 0-39.9-17.8-39.9-39.9 0-22 17.8-39.9 39.9-39.9h451.9c22 0 39.9 17.8 39.9 39.9 0 22-17.8 39.9-39.9 39.9z" fill="#921010" p-id="3804"></path><path d="M143.4 818.7m-79.8 0a79.8 79.8 0 1 0 159.6 0 79.8 79.8 0 1 0-159.6 0Z" fill="#921010" p-id="3805"></path><path d="M707.8 858.6H362.2c-22 0-39.9-17.8-39.9-39.9 0-22 17.8-39.9 39.9-39.9h345.6c22 0 39.9 17.8 39.9 39.9 0 22.1-17.9 39.9-39.9 39.9z" fill="#921010" p-id="3806"></path></svg>