<?xml version="1.0" standalone="no"?><!DOCTYPE svg PUBLIC "-//W3C//DTD SVG 1.1//EN" "http://www.w3.org/Graphics/SVG/1.1/DTD/svg11.dtd"><svg t="1608101149756" class="icon" viewBox="0 0 1024 1024" version="1.1" xmlns="http://www.w3.org/2000/svg" p-id="2443" xmlns:xlink="http://www.w3.org/1999/xlink" width="200" height="200"><defs><style type="text/css"></style></defs><path d="M167.1 485.8V334c0-62.6 51.2-113.9 113.9-113.9h384.6c62.6 0 113.9 51.2 113.9 113.9v151.8c0 161.7-132.3 294-294 294h-24.4c-161.7 0-294-132.3-294-294z" fill="#921010" opacity=".1" p-id="2444" data-spm-anchor-id="a313x.7781069.0.i15" class=""></path><path d="M414.8 781.3c-193.1 0-350.2-157.1-350.2-350.1V278.3c0-78.4 63.8-142.2 142.2-142.2h415.8c78.4 0 142.2 63.8 142.2 142.2v152.9c0.2 193-156.9 350.1-350 350.1zM206.9 194.1c-46.4 0-84.2 37.7-84.2 84.2v152.9c0 161.1 131 292.1 292.1 292.1s292.1-131 292.1-292.1V278.3c0-46.4-37.7-84.2-84.2-84.2H206.9zM824.6 530.8c-16 0-29-13-29-29s13-29 29-29c42.2 0 76.6-34.4 76.6-76.6 0-42.2-34.4-76.6-76.6-76.6-16 0-29-13-29-29s13-29 29-29c74.3 0 134.7 60.4 134.7 134.7s-60.4 134.5-134.7 134.5zM539.5 887.9H287.8c-16 0-29-13-29-29s13-29 29-29h251.7c16 0 29 13 29 29s-13 29-29 29z" fill="#3d3d3d" p-id="2445" data-spm-anchor-id="a313x.7781069.0.i13" class="selected"></path></svg>