<?xml version="1.0" standalone="no"?><!DOCTYPE svg PUBLIC "-//W3C//DTD SVG 1.1//EN" "http://www.w3.org/Graphics/SVG/1.1/DTD/svg11.dtd"><svg t="1608101273072" class="icon" viewBox="0 0 1024 1024" version="1.1" xmlns="http://www.w3.org/2000/svg" p-id="3548" xmlns:xlink="http://www.w3.org/1999/xlink" width="200" height="200"><defs><style type="text/css"></style></defs><path d="M495.3 464.4c-110.3 0-200.1-89.7-200.1-200.1s89.8-200 200.1-200 200 89.7 200 200-89.7 200.1-200 200.1z m0-340.1c-77.2 0-140 62.8-140 140s62.8 140 140 140 140-62.8 140-140-62.8-140-140-140z" fill="#921010" p-id="3549"></path><path d="M590.3 579.8C436.7 584.2 316.1 722.5 316.1 886v53.8c0 11 8.4 20 18.8 20h526.7c10.4 0 18.8-9 18.8-20v-60c0-168.6-130.6-304.7-290.1-300z" fill="#921010" opacity=".1" p-id="3550"></path><path d="M795.9 939.7H195c-28.4 0-51.5-22.4-51.5-50v-53.8c0-180.6 153.5-331.4 342.1-336.2 98.7-2.6 194.9 34.3 263.4 101.1 63.4 61.8 98.3 143.1 98.3 228.9v60c0.1 27.6-23 50-51.4 50z m-592.3-60h583.8v-50c0-69.5-28.5-135.5-80.2-185.9-57-55.5-137.1-86.3-220-84.1-156.4 4-283.6 127.9-283.6 276.2v43.8z" fill="#921010" p-id="3551"></path><path d="M495.1 609.6m-30 0a30 30 0 1 0 60 0 30 30 0 1 0-60 0Z" fill="#921010" p-id="3552"></path><path d="M465.9 736.9a30 80 0 1 0 60 0 30 80 0 1 0-60 0Z" fill="#921010" p-id="3553"></path></svg>